<svg version="1.1" id="Layer_1" xmlns="http://www.w3.org/2000/svg" xmlns:xlink="http://www.w3.org/1999/xlink" x="0px" y="0px"
	 width="100%" viewBox="0 0 192 192" enable-background="new 0 0 192 192" xml:space="preserve">
<path fill="#FDFDFD" opacity="1.000000" stroke="none" 
	d="
M103.000000,193.000000 
	C68.666672,193.000000 34.833336,193.000000 1.000005,193.000000 
	C1.000003,129.000000 1.000003,65.000015 1.000002,1.000013 
	C64.999992,1.000009 128.999985,1.000009 192.999969,1.000004 
	C192.999985,64.999985 192.999985,128.999969 193.000000,192.999969 
	C163.166672,193.000000 133.333328,193.000000 103.000000,193.000000 
M190.920441,151.979401 
	C190.762299,150.866592 190.604172,149.753799 190.284927,148.072433 
	C189.904068,147.673370 189.523209,147.274307 188.822098,146.310089 
	C187.979218,145.724640 187.136337,145.139175 185.714569,144.192947 
	C184.450348,144.454117 183.186142,144.715271 181.150604,145.023148 
	C180.429779,146.676834 179.708939,148.330521 178.992844,150.000351 
	C178.992844,150.000351 178.975037,149.989273 178.350677,150.086166 
	C178.038452,154.036270 179.157623,155.539703 182.708344,154.914352 
	C183.144424,153.957794 183.580505,153.001236 184.693314,152.022598 
	C185.489548,151.439774 186.285782,150.856934 187.150925,149.505981 
	C187.105209,148.994446 187.059479,148.482925 187.024490,147.389801 
	C187.029922,147.195908 187.035370,147.001999 187.577148,146.934845 
	C187.935089,147.017166 188.293015,147.099472 188.479233,147.572769 
	C188.782303,148.232590 189.085373,148.892410 189.429016,150.052124 
	C189.470612,150.566574 189.512207,151.081039 189.208954,152.007721 
	C189.092239,152.346405 188.975525,152.685104 188.250336,153.095352 
	C188.152573,154.155792 188.054810,155.216232 187.957047,156.276672 
	C188.364838,156.319107 188.772614,156.361542 189.180389,156.403976 
	C189.472610,155.381592 189.764816,154.359222 190.317535,152.967163 
	C190.317535,152.967163 190.534088,152.570129 190.920441,151.979401 
M104.935875,182.595154 
	C134.381668,178.580124 159.536118,156.179810 163.847610,142.916031 
	C163.072021,143.302689 162.407883,143.447205 162.019150,143.854553 
	C147.968765,158.577850 130.299530,162.567276 110.859802,160.833206 
	C92.944481,159.235123 92.025314,158.385147 85.774261,142.229355 
	C85.594620,141.765060 85.135666,141.294983 85.188370,140.875519 
	C85.362717,139.487656 85.293884,137.784943 86.076324,136.813599 
	C88.050652,134.362640 90.421799,132.227966 92.665634,129.998444 
	C94.696541,127.980499 96.339775,128.306793 97.849747,130.742676 
	C100.393051,134.845551 103.256195,138.758102 105.662674,142.936234 
	C110.882133,151.998260 118.901550,155.065613 128.858521,154.253815 
	C137.642929,153.537628 144.985321,147.766327 147.359940,139.768265 
	C149.489166,132.596680 146.739975,124.148224 139.113953,119.466515 
	C132.695999,115.526451 125.520187,112.371826 118.266754,110.355705 
	C109.256721,107.851334 99.821556,106.876450 90.570282,105.239471 
	C90.545097,105.075783 90.457306,104.891396 90.503593,104.751335 
	C96.244095,87.382439 102.037697,70.030968 107.731369,52.646774 
	C112.724731,37.400791 112.672318,37.408066 128.639847,39.546276 
	C138.386734,40.851482 148.145065,42.071289 158.883667,43.456573 
	C157.238205,41.285244 156.139648,39.520866 154.742340,38.037987 
	C123.723694,5.119524 72.886375,1.856702 37.464893,30.475784 
	C3.008306,58.315269 -4.330713,108.836998 20.694687,145.726913 
	C22.164335,147.893326 23.818993,150.387268 26.535496,148.652634 
	C27.978653,147.731094 28.997604,144.956314 28.938604,143.057541 
	C28.421852,126.427139 27.610178,109.805992 26.911213,93.181046 
	C26.829306,91.232872 26.900093,89.278275 26.900093,86.926132 
	C22.796888,86.926132 19.061394,86.926132 14.964744,86.926132 
	C15.379045,83.713539 14.828882,79.310966 16.278194,78.505318 
	C19.520018,76.703239 23.757843,76.692909 27.799650,75.912300 
	C27.973043,74.501877 28.257746,73.033432 28.318850,71.555740 
	C28.833755,59.103634 35.351456,50.450352 45.475147,43.927162 
	C54.029522,38.415165 63.469265,35.655827 73.346382,33.580803 
	C84.861740,31.161604 93.833290,34.637569 101.202126,43.355762 
	C96.577492,51.825008 95.784744,51.944935 87.548004,48.257717 
	C82.417152,45.960861 77.074547,43.994312 71.649696,42.541435 
	C67.187050,41.346260 62.880356,44.068684 62.344746,48.574944 
	C61.353371,56.915638 61.083363,65.342079 60.485035,74.142654 
	C70.765289,74.142654 80.185753,74.142654 89.546089,74.142654 
	C90.415245,80.450233 90.521271,80.715050 85.396744,82.766823 
	C82.092323,84.089844 78.456779,84.896217 74.905197,85.214058 
	C70.325928,85.623863 65.682236,85.313858 59.759083,85.313858 
	C60.528599,106.770226 61.136322,127.193779 62.204838,147.593201 
	C62.301151,149.432007 65.075691,151.998276 67.123451,152.684937 
	C71.280342,154.078857 75.791206,154.417130 80.363823,155.227310 
	C80.250946,157.072662 80.164085,158.492676 80.009567,161.018723 
	C63.189014,159.559052 46.719219,158.129807 30.249422,156.700562 
	C29.744102,157.109222 29.238783,157.517868 28.733461,157.926529 
	C30.560236,159.032532 32.599529,159.895874 34.181538,161.281372 
	C54.281055,178.883987 77.645157,185.734055 104.935875,182.595154 
M178.334427,96.512642 
	C178.000961,79.989662 173.771408,64.684540 164.077209,49.955639 
	C163.082550,54.692707 162.308792,58.377758 161.466080,62.391121 
	C159.337372,62.252460 157.538467,62.152378 155.742371,62.015522 
	C143.970505,61.118557 132.203735,60.142296 120.422058,59.402702 
	C118.968819,59.311474 116.581520,60.074150 116.099648,61.119766 
	C114.548622,64.485291 113.687042,68.168549 112.646698,71.454193 
	C122.726418,73.598053 132.322693,74.911453 141.448532,77.741714 
	C157.184753,82.622108 169.197998,92.066338 171.462036,109.525101 
	C172.407654,116.817062 170.934082,124.422737 170.542679,132.241333 
	C176.284195,121.305710 178.022919,109.579491 178.334427,96.512642 
M185.518600,155.403381 
	C185.518600,155.403381 185.594391,155.527588 185.518600,155.403381 
M184.477188,157.612411 
	C184.477188,157.612411 184.384003,157.474243 184.477188,157.612411 
z"/>
<path fill="#5E5E5E" opacity="1.000000" stroke="none" 
	d="
M104.494179,182.660126 
	C77.645157,185.734055 54.281055,178.883987 34.181538,161.281372 
	C32.599529,159.895874 30.560236,159.032532 28.733461,157.926529 
	C29.238783,157.517868 29.744102,157.109222 30.249422,156.700562 
	C46.719219,158.129807 63.189014,159.559052 80.009567,161.018723 
	C80.164085,158.492676 80.250946,157.072662 80.363823,155.227310 
	C75.791206,154.417130 71.280342,154.078857 67.123451,152.684937 
	C65.075691,151.998276 62.301151,149.432007 62.204838,147.593201 
	C61.136322,127.193779 60.528599,106.770226 59.759083,85.313858 
	C65.682236,85.313858 70.325928,85.623863 74.905197,85.214058 
	C78.456779,84.896217 82.092323,84.089844 85.396744,82.766823 
	C90.521271,80.715050 90.415245,80.450233 89.546089,74.142654 
	C80.185753,74.142654 70.765289,74.142654 60.485035,74.142654 
	C61.083363,65.342079 61.353371,56.915638 62.344746,48.574944 
	C62.880356,44.068684 67.187050,41.346260 71.649696,42.541435 
	C77.074547,43.994312 82.417152,45.960861 87.548004,48.257717 
	C95.784744,51.944935 96.577492,51.825008 101.203835,43.350834 
	C93.833290,34.637569 84.861740,31.161604 73.346382,33.580803 
	C63.469265,35.655827 54.029522,38.415165 45.475147,43.927162 
	C35.351456,50.450352 28.833755,59.103634 28.318850,71.555740 
	C28.257746,73.033432 27.973043,74.501877 27.799650,75.912300 
	C23.757843,76.692909 19.520018,76.703239 16.278194,78.505318 
	C14.828882,79.310966 15.379045,83.713539 14.964744,86.926132 
	C19.061394,86.926132 22.796888,86.926132 26.900093,86.926132 
	C26.900093,89.278275 26.829306,91.232872 26.911213,93.181046 
	C27.610178,109.805992 28.421852,126.427139 28.938604,143.057541 
	C28.997604,144.956314 27.978653,147.731094 26.535496,148.652634 
	C23.818993,150.387268 22.164335,147.893326 20.694687,145.726913 
	C-4.330713,108.836998 3.008306,58.315269 37.464893,30.475784 
	C72.886375,1.856702 123.723694,5.119524 154.742340,38.037987 
	C156.139648,39.520866 157.238205,41.285244 158.883667,43.456573 
	C148.145065,42.071289 138.386734,40.851482 128.639847,39.546276 
	C112.672318,37.408066 112.724731,37.400791 107.731369,52.646774 
	C102.037697,70.030968 96.244095,87.382439 90.503593,104.751335 
	C90.457306,104.891396 90.545097,105.075783 90.570145,105.240219 
	C99.821556,106.876450 109.256721,107.851334 118.266754,110.355705 
	C125.520187,112.371826 132.695999,115.526451 139.113953,119.466515 
	C146.739975,124.148224 149.489166,132.596680 147.359940,139.768265 
	C144.985321,147.766327 137.642929,153.537628 128.858521,154.253815 
	C118.901550,155.065613 110.882133,151.998260 105.662674,142.936234 
	C103.256195,138.758102 100.393051,134.845551 97.849747,130.742676 
	C96.339775,128.306793 94.696541,127.980499 92.665634,129.998444 
	C90.421799,132.227966 88.050652,134.362640 86.076324,136.813599 
	C85.293884,137.784943 85.362717,139.487656 85.188370,140.875519 
	C85.135666,141.294983 85.594620,141.765060 85.774261,142.229355 
	C92.025314,158.385147 92.944481,159.235123 110.859802,160.833206 
	C130.299530,162.567276 147.968765,158.577850 162.019150,143.854553 
	C162.407883,143.447205 163.072021,143.302689 163.847610,142.916031 
	C159.536118,156.179810 134.381668,178.580124 104.494179,182.660126 
z"/>
<path fill="#5F5F5F" opacity="1.000000" stroke="none" 
	d="
M178.335022,97.006409 
	C178.022919,109.579491 176.284195,121.305710 170.542679,132.241333 
	C170.934082,124.422737 172.407654,116.817062 171.462036,109.525101 
	C169.197998,92.066338 157.184753,82.622108 141.448532,77.741714 
	C132.322693,74.911453 122.726418,73.598053 112.646698,71.454193 
	C113.687042,68.168549 114.548622,64.485291 116.099648,61.119766 
	C116.581520,60.074150 118.968819,59.311474 120.422058,59.402702 
	C132.203735,60.142296 143.970505,61.118557 155.742371,62.015522 
	C157.538467,62.152378 159.337372,62.252460 161.466080,62.391121 
	C162.308792,58.377758 163.082550,54.692707 164.077209,49.955639 
	C173.771408,64.684540 178.000961,79.989662 178.335022,97.006409 
z"/>
<path fill="#F3F3F3" opacity="1.000000" stroke="none" 
	d="
M184.016586,152.044678 
	C183.580505,153.001236 183.144424,153.957794 182.176270,154.699493 
	C180.754486,152.986191 179.864761,151.487732 178.975037,149.989273 
	C178.975037,149.989273 178.992844,150.000351 179.251312,149.829285 
	C180.304352,149.109467 181.098907,148.560715 181.925537,148.326813 
	C182.578110,149.045120 183.198608,149.448593 183.878479,150.215836 
	C183.964096,151.067963 183.990341,151.556320 184.016586,152.044678 
z"/>
<path fill="#EFEFEF" opacity="1.000000" stroke="none" 
	d="
M178.662872,150.037720 
	C179.864761,151.487732 180.754486,152.986191 181.837326,154.757019 
	C179.157623,155.539703 178.038452,154.036270 178.662872,150.037720 
z"/>
<path fill="#B6B6B6" opacity="1.000000" stroke="none" 
	d="
M183.819107,149.852066 
	C183.198608,149.448593 182.578110,149.045120 181.996796,148.121155 
	C182.035980,147.600647 182.054932,147.166351 182.419601,147.134109 
	C184.194107,147.391708 185.603928,147.681549 187.013763,147.971390 
	C187.059479,148.482925 187.105209,148.994446 186.809174,149.829697 
	C185.965668,149.805328 185.463898,149.457245 184.709183,149.131500 
	C184.280289,149.416397 184.104340,149.678940 183.909668,149.908630 
	C183.890930,149.875778 183.819107,149.852066 183.819107,149.852066 
z"/>
<path fill="#EFEFEF" opacity="1.000000" stroke="none" 
	d="
M182.054932,147.166351 
	C182.054932,147.166351 182.035980,147.600647 181.964722,147.806305 
	C181.098907,148.560715 180.304352,149.109467 179.248962,149.821213 
	C179.708939,148.330521 180.429779,146.676834 181.579208,145.234406 
	C182.007812,145.445679 182.024429,145.922409 182.025925,146.233551 
	C182.036606,146.751907 182.045776,146.959122 182.054932,147.166351 
z"/>
<path fill="#F3F3F3" opacity="1.000000" stroke="none" 
	d="
M190.057037,153.336838 
	C189.764816,154.359222 189.472610,155.381592 189.180389,156.403976 
	C188.772614,156.361542 188.364838,156.319107 187.957047,156.276672 
	C188.054810,155.216232 188.152573,154.155792 188.858063,153.123718 
	C189.662888,153.213684 189.859970,153.275269 190.057037,153.336838 
z"/>
<path fill="#8B8B8B" opacity="1.000000" stroke="none" 
	d="
M182.024429,145.922409 
	C182.024429,145.922409 182.007812,145.445679 181.964874,145.211060 
	C183.186142,144.715271 184.450348,144.454117 185.912903,144.699341 
	C186.065079,145.425812 186.018906,145.645874 185.577820,145.833344 
	C184.130066,145.841309 183.077240,145.881851 182.024429,145.922409 
z"/>
<path fill="#EFEFEF" opacity="1.000000" stroke="none" 
	d="
M184.962128,149.109161 
	C185.463898,149.457245 185.965668,149.805328 186.774719,150.213745 
	C186.285782,150.856934 185.489548,151.439774 184.354950,152.033630 
	C183.990341,151.556320 183.964096,151.067963 183.878479,150.215836 
	C183.819107,149.852066 183.890930,149.875778 184.130127,149.836456 
	C184.654083,149.642899 184.851685,149.413574 184.962128,149.109161 
z"/>
<path fill="#F3F3F3" opacity="1.000000" stroke="none" 
	d="
M182.025925,146.233551 
	C183.077240,145.881851 184.130066,145.841309 185.781723,145.965790 
	C186.702026,146.257797 186.922119,146.483551 187.040833,146.808105 
	C187.035370,147.001999 187.029922,147.195908 187.019135,147.680603 
	C185.603928,147.681549 184.194107,147.391708 182.419601,147.134109 
	C182.045776,146.959122 182.036606,146.751907 182.025925,146.233551 
z"/>
<path fill="#A1A1A1" opacity="1.000000" stroke="none" 
	d="
M187.308990,146.871475 
	C186.922119,146.483551 186.702026,146.257797 186.176666,145.998383 
	C186.018906,145.645874 186.065079,145.425812 186.202347,144.879730 
	C187.136337,145.139175 187.979218,145.724640 188.863922,146.677826 
	C188.905746,147.045578 188.650955,147.181778 188.650955,147.181778 
	C188.293015,147.099472 187.935089,147.017166 187.308990,146.871475 
z"/>
<path fill="#A1A1A1" opacity="1.000000" stroke="none" 
	d="
M189.388428,149.552231 
	C189.085373,148.892410 188.782303,148.232590 188.565094,147.377274 
	C188.650955,147.181778 188.905746,147.045578 189.024048,146.960403 
	C189.523209,147.274307 189.904068,147.673370 190.095367,148.579605 
	C189.733353,149.241928 189.560898,149.397079 189.388428,149.552231 
z"/>
<path fill="#A3A3A3" opacity="1.000000" stroke="none" 
	d="
M189.553802,151.595490 
	C189.512207,151.081039 189.470612,150.566574 189.408722,149.802185 
	C189.560898,149.397079 189.733353,149.241928 190.175934,148.863892 
	C190.604172,149.753799 190.762299,150.866592 190.490631,152.019745 
	C189.891800,151.905228 189.722794,151.750351 189.553802,151.595490 
z"/>
<path fill="#A3A3A3" opacity="1.000000" stroke="none" 
	d="
M190.187286,153.152008 
	C189.859970,153.275269 189.662888,153.213684 189.162308,153.087952 
	C188.975525,152.685104 189.092239,152.346405 189.381378,151.801605 
	C189.722794,151.750351 189.891800,151.905228 190.297455,152.315125 
	C190.534088,152.570129 190.317535,152.967163 190.187286,153.152008 
z"/>
<path fill="#EFEFEF" opacity="1.000000" stroke="none" 
	d="
M185.556488,155.465485 
	C185.594391,155.527588 185.518600,155.403381 185.556488,155.465485 
z"/>
<path fill="#EFEFEF" opacity="1.000000" stroke="none" 
	d="
M184.430603,157.543335 
	C184.384003,157.474243 184.477188,157.612411 184.430603,157.543335 
z"/>
<path fill="#F3F3F3" opacity="1.000000" stroke="none" 
	d="
M184.709183,149.131500 
	C184.851685,149.413574 184.654083,149.642899 184.148849,149.869293 
	C184.104340,149.678940 184.280289,149.416397 184.709183,149.131500 
z"/>
</svg>